<svg width="58" height="38" viewBox="0 0 58 38" fill="none" xmlns="http://www.w3.org/2000/svg">
<path d="M23.6401 5.80901C22.1382 3.50657 19.9177 1.74621 17.3123 0.792484C14.707 -0.161237 11.8576 -0.256787 9.19233 0.520202C6.5271 1.29719 4.19005 2.90474 2.53244 5.10123C0.87483 7.29772 -0.0137829 9.96448 0.000161643 12.7007C0.00154415 14.9666 0.621034 17.1905 1.79392 19.1401C2.9668 21.0898 4.65003 22.6936 6.66776 23.7841C8.68549 24.8745 10.9637 25.4116 13.2643 25.3391C15.5649 25.2667 17.8036 24.5874 19.7464 23.3722C18.7363 26.3247 16.855 29.4745 13.7554 32.632C13.1624 33.2359 12.8374 34.0469 12.8518 34.8867C12.859 35.3026 12.9493 35.7129 13.1176 36.0944C13.2858 36.4759 13.5288 36.821 13.8325 37.1101C14.1363 37.3991 14.4949 37.6264 14.8879 37.7791C15.2809 37.9317 15.7006 38.0066 16.1231 37.9995C16.9762 37.9853 17.7886 37.638 18.3816 37.0342C29.8392 25.3456 28.3511 12.64 23.6401 5.82419V5.80901ZM54.4815 5.80901C52.9796 3.50657 50.7591 1.74621 48.1538 0.792484C45.5484 -0.161237 42.699 -0.256787 40.0338 0.520202C37.3685 1.29719 35.0315 2.90474 33.3739 5.10123C31.7163 7.29772 30.8276 9.96448 30.8416 12.7007C30.843 14.9666 31.4625 17.1905 32.6353 19.1401C33.8082 21.0898 35.4915 22.6936 37.5092 23.7841C39.5269 24.8745 41.8051 25.4116 44.1057 25.3391C46.4064 25.2667 48.645 24.5874 50.5878 23.3722C49.5778 26.3247 47.6964 29.4745 44.5969 32.632C44.3032 32.931 44.0723 33.284 43.9173 33.6709C43.7622 34.0578 43.6861 34.4709 43.6933 34.8867C43.7004 35.3026 43.7907 35.7129 43.959 36.0944C44.1273 36.4759 44.3702 36.821 44.674 37.1101C44.9777 37.3991 45.3363 37.6264 45.7294 37.7791C46.1224 37.9317 46.5421 38.0066 46.9645 37.9995C47.3869 37.9925 47.8038 37.9036 48.1913 37.738C48.5789 37.5723 48.9294 37.3332 49.2231 37.0342C60.6807 25.3456 59.1926 12.64 54.4815 5.82419V5.80901Z" fill="white"/>
</svg>
