<svg width="671" height="581" viewBox="0 0 671 581" fill="none" xmlns="http://www.w3.org/2000/svg">
<path d="M491.809 525.03V492.365L550.926 461.337L582.971 477.244L491.809 525.03ZM491.809 569.841V537.235L594.941 483.138L626.927 498.983L491.809 569.841ZM491.809 480.16V432.012L539.017 455.387L491.809 480.16ZM638.897 504.933L670.513 520.599L491.809 608.761V582.044L638.897 504.933Z" fill="white"/>
<path d="M463.967 368.394L390.116 259.955L420.81 244.836L463.967 368.394ZM380.296 264.81L453.412 372.158L347.76 280.841L380.296 264.81ZM430.633 239.978L473.544 218.787V362.748L430.633 239.978ZM450.893 384.304L294.839 306.949L337.197 286.063L450.893 384.304ZM288.877 443.804V408.406H423.261L288.877 443.804ZM288.877 350.545V314.356L444.44 391.466L288.877 350.545ZM288.877 397.66V361.717L425.346 397.66H288.877ZM446.035 413.567L288.877 491.164V454.915L446.035 413.567Z" fill="white"/>
<path d="M-97.1334 136.036L-23.2821 244.476L-53.9761 259.594L-97.1334 136.036ZM-13.4618 239.621L-86.5784 132.273L19.0739 223.59L-13.4618 239.621ZM-63.7989 264.452L-106.71 285.644L-106.71 141.683L-63.7989 264.452ZM-84.0586 120.127L71.995 197.482L29.6365 218.367L-84.0586 120.127ZM77.9571 60.6263L77.957 96.0244L-56.4266 96.0244L77.9571 60.6263ZM77.957 153.886L77.957 190.075L-77.6058 112.964L77.957 153.886ZM77.957 106.771L77.957 142.713L-58.5124 106.771L77.957 106.771ZM-79.2011 90.8633L77.9571 13.267L77.9571 49.5156L-79.2011 90.8633Z" fill="white"/>
<path d="M91.083 311.804V279.14L150.2 248.112L182.245 264.019L91.083 311.804ZM91.083 356.615V324.01L194.215 269.912L226.201 285.758L91.083 356.615ZM91.083 266.935V218.787L138.291 242.162L91.083 266.935ZM238.172 291.707L269.788 307.373L91.083 395.536V368.818L238.172 291.707Z" fill="white"/>
<path d="M205.692 187.861L158.363 163.33L205.448 140.075L205.692 187.861ZM146.334 169.22L199.127 196.603L145.289 223.38L91.083 196.482L146.334 169.22ZM157.439 229.391L205.813 205.348L206.06 253.496L157.439 229.391ZM216.748 205.713L269.79 233.216V285.13L216.995 258.96L216.748 205.713ZM216.622 187.861L216.317 134.732L269.785 108.32V161.388L216.622 187.861ZM222.949 196.786L269.788 173.469V221.011L222.949 196.786Z" fill="white"/>
<path d="M112.018 447.038C104.654 451.105 97.2865 455.234 91.0855 458.635V419.167L128.718 437.808C123.498 440.662 117.79 443.881 112.018 447.038ZM210.237 533.015L161.002 506.541L210.237 481.162V533.015ZM91.083 530.523V481.221L137.862 506.359L91.083 530.523ZM94.2143 470.658L140.87 443.881L143.508 445.158L143.755 497.252L94.2143 470.658ZM202.389 541.027L155.057 564.405L154.811 515.466L202.389 541.027ZM131.109 576.184L91.083 595.919V554.389L131.109 576.184ZM221.107 531.8V483.649L269.79 507.754L221.107 531.8ZM143.878 515.407L144.187 569.749L142.959 570.355L91.6352 542.363L143.878 515.407ZM154.438 450.558L201.094 473.692L154.685 497.676L154.438 450.558Z" fill="white"/>
<path fill-rule="evenodd" clip-rule="evenodd" d="M-106.708 495.726V318.977L71.9967 407.14L-106.708 495.726ZM27.614 407.502L-89.5797 346.057V469.253L27.614 407.502ZM-78.7108 451.282V363.97L4.34941 407.504L-78.7108 451.282ZM-31.934 407.322L-61.7673 391.659V423.049L-31.934 407.322Z" fill="white"/>
<path fill-rule="evenodd" clip-rule="evenodd" d="M288.877 285.068V108.319L467.582 196.482L288.877 285.068ZM423.199 196.844L306.005 135.399V258.595L423.199 196.844ZM316.874 240.624V153.312L399.934 196.846L316.874 240.624ZM363.651 196.664L333.818 181.001V212.391L363.651 196.664Z" fill="white"/>
<path fill-rule="evenodd" clip-rule="evenodd" d="M517.222 46.2043V129.871L551.17 147.723L491.807 177.171V0.422363L549.881 29.0202L517.222 46.2043ZM528.092 58.8353V58.8339H528.09L528.092 58.8353ZM528.092 58.8353V123.375L563.143 141.833L588.804 129.083V92.0457L528.092 58.8353ZM599.724 123.678V92.5903L637.233 72.1284L670.506 88.5826L599.724 123.678ZM533.856 49.6651L561.851 34.9706L625.327 66.2992L594.756 82.936L533.856 49.6651Z" fill="white"/>
</svg>
